{"title":"Don't Be Afraid Of The Dark (2010) HDRip XviD BBnRG","uid":6727062,"size":898367199,"categoryP":"video","categoryS":"movies","magnet":"?xt=urn:btih:5df0999e3274f6c691302261deec53e30444b74a&amp;dn=Don%5C%27t+Be+Afraid+Of+The+Dark+%282010%29+HDRip+XviD+BBnRG&amp;tr=udp%3A%2F%2Ftracker.openbittorrent.com%3A80&amp;tr=udp%3A%2F%2Fopen.demonii.com%3A1337&amp;tr=udp%3A%2F%2Ftracker.coppersurfer.tk%3A6969&amp;tr=udp%3A%2F%2Fexodus.desync.com%3A6969","seeders":0,"leechers":0,"uploader":"FridayToker","files":-1,"time":1317992581,"description":"Don't  Be Afraid Of The Dark(2011)\n\n\n99 min  -  Horror | Thriller   -  7 October 2011 (UK)\n\nSummary\nA young girl is sent to live with her estranged father and his girlfriend at their new home. The father, Alex has plans to spruce up the home with the help of his interior decorator girlfriend, Kim. The previous owner of the home was a famous painter who mysteriously disappeared. Alex's daughter, Sally, soon discovers the cause of the painter's disappearance.\n\nCast\nBruce Gleeson \t... \tBuggy Driver\nEdwina Ritchard ... \tHousekeeper\nGarry McDonald \t... \tBlackwood\nBailee Madison \t... \tSally\nKatie Holmes \t... \tKim\nGuy Pearce \t... \tAlex\nJack Thompson \t... \tHarris\nJulia Blake \t... \tMrs. Underhill\nDavid Tocci \t... \tWorkman\nLance Drisdale \t... \tPoliceman\nNicholas Bell \t... \tPsychiatrist\nLibby Gott \t... \tNurse\nJames Mackay \t... \tLibrarian\nEmelia Burns    ... \tCaterer \nCarolyn Shakespeare-Allen... \tAirport Cart Driver\n\nIMDb Link:\n &lt;a href=&quot;\nhttp://www.imdb.com/title/tt1270761/&quot; rel=&quot;nofollow&quot; target=&quot;_NEW&quot;&gt;\nhttp://www.imdb.com/title/tt1270761/&lt;/a&gt;\n\n\n\nGeneral Information\nComplete name                    : Don't Be Afraid Of The Dark (2011) HDRip XviD BBnRG.avi\nFormat                           : AVI\nFormat/Info                      : Audio Video Interleave\nFile size                        : 864 MiB\nDuration                         : 1h 38mn\nOverall bit rate                 : 1 223 Kbps\nWriting application              : VirtualDubMod 1.5.4.1 (build 2178/release)\nWriting library                  : VirtualDubMod build 2178/release\n\nVideo\nID                               : 0\nFormat                           : MPEG-4 Visual\nFormat profile                   : Advanced Simple@L5\nFormat settings, BVOP            : 1\nFormat settings, QPel            : No\nFormat settings, GMC             : No warppoints\nFormat settings, Matrix          : Custom\nCodec ID                         : XVID\nCodec ID/Hint                    : XviD\nDuration                         : 1h 38mn\nBit rate                         : 1 023 Kbps\nWidth                            : 720 pixels\nHeight                           : 336 pixels\nDisplay aspect ratio             : 2.2:1\nFrame rate                       : 29.970 fps\nColor space                      : YUV\nChroma subsampling               : 4:2:0\nBit depth                        : 8 bits\nScan type                        : Progressive\nCompression mode                 : Lossy\nBits/(Pixel*Frame)               : 0.141\nStream size                      : 723 MiB (84%)\nWriting library                  : XviD 57\n\nAudio\nID                               : 1\nFormat                           : AC-3\nFormat/Info                      : Audio Coding 3\nMode extension                   : CM (complete main)\nCodec ID                         : 2000\nDuration                         : 1h 38mn\nBit rate mode                    : Constant\nBit rate                         : 192 Kbps\nChannel(s)                       : 2 channels\nChannel positions                : Front: L R\nSampling rate                    : 48.0 KHz\nBit depth                        : 16 bits\nCompression mode                 : Lossy\nStream size                      : 136 MiB (16%)\nAlignment                        : Split accross interleaves\nInterleave, duration             : 96 ms (2.88 video frames)\nInterleave, preload duration     : 96 ms\n\nEncoder:     FridayToker\nSource(s):  ViP3R (thanks)\n\nAnother fine release from BBnRG\n\nWe aim to bring you only the best :)\n\nScreens\n &lt;a href=&quot;\nhttp://i1124.photobucket.com/albums/l569/FridayToker/vlcsnap00162i.png&quot; rel=&quot;nofollow&quot; target=&quot;_NEW&quot;&gt;\nhttp://i1124.photobucket.com/albums/l569/FridayToker/vlcsnap00162i.png&lt;/a&gt; &lt;a href=&quot;\nhttp://i1124.photobucket.com/albums/l569/FridayToker/vlcsnap00161.png&quot; rel=&quot;nofollow&quot; target=&quot;_NEW&quot;&gt;\nhttp://i1124.photobucket.com/albums/l569/FridayToker/vlcsnap00161.png&lt;/a&gt; &lt;a href=&quot;\nhttp://i1124.photobucket.com/albums/l569/FridayToker/vlcsnap00160.png&quot; rel=&quot;nofollow&quot; target=&quot;_NEW&quot;&gt;\nhttp://i1124.photobucket.com/albums/l569/FridayToker/vlcsnap00160.png&lt;/a&gt; &lt;a href=&quot;\nhttp://i1124.photobucket.com/albums/l569/FridayToker/vlcsnap00177.png&quot; rel=&quot;nofollow&quot; target=&quot;_NEW&quot;&gt;\nhttp://i1124.photobucket.com/albums/l569/FridayToker/vlcsnap00177.png&lt;/a&gt; &lt;a href=&quot;\nhttp://i1124.photobucket.com/albums/l569/FridayToker/vlcsnap00188.png&quot; rel=&quot;nofollow&quot; target=&quot;_NEW&quot;&gt;\nhttp://i1124.photobucket.com/albums/l569/FridayToker/vlcsnap00188.png&lt;/a&gt;\n\nPlease seed as long as possible\n\nYou will have to be patient with this upload as i have very limited bandwidth","torrent":{"xt":"urn:btih:5df0999e3274f6c691302261deec53e30444b74a","amp;dn":"Don%5C%27t+Be+Afraid+Of+The+Dark+%282010%29+HDRip+XviD+BBnRG","amp;tr":["udp%3A%2F%2Ftracker.openbittorrent.com%3A80","udp%3A%2F%2Fopen.demonii.com%3A1337","udp%3A%2F%2Ftracker.coppersurfer.tk%3A6969","udp%3A%2F%2Fexodus.desync.com%3A6969"],"infoHash":"5df0999e3274f6c691302261deec53e30444b74a","infoHashBuffer":{"type":"Buffer","data":[93,240,153,158,50,116,246,198,145,48,34,97,222,236,83,227,4,68,183,74]},"announce":[],"urlList":[]}}